# MagicaVoxel @ Ephtracy

# group
o 

# material
mtllib Blue.mtl
usemtl palette

# normals
vn -1 0 0
vn 1 0 0
vn 0 0 1
vn 0 0 -1
vn 0 -1 0
vn 0 1 0

# texcoords
vt 0.0214844 0.5
vt 0.642578 0.5
vt 0.791016 0.5
vt 0.837891 0.5
vt 0.904297 0.5
vt 0.912109 0.5
vt 0.916016 0.5
vt 0.931641 0.5
vt 0.951172 0.5
vt 0.958984 0.5
vt 0.962891 0.5
vt 0.990234 0.5

# verts
v -0.5 0.7 0.3
v -0.5 0.7 -0.4
v -0.5 1.5 0.3
v -0.5 1.5 0.1
v -0.5 1.5 -0.2
v -0.5 1.5 -0.4
v -0.5 1.8 0.1
v -0.5 1.8 -0.2
v -0.4 0.4 0.1
v -0.4 0.4 -0.1
v -0.4 0.5 0.1
v -0.4 0.5 -0.1
v -0.4 0.7 0.1
v -0.4 0.7 -0.1
v -0.4 1.8 0.1
v -0.4 1.8 -0.2
v -0.4 1.9 0.1
v -0.4 1.9 -0.2
v -0.3 0 0.1
v -0.3 0 -0.1
v -0.3 0.1 0.1
v -0.3 0.1 -0.1
v -0.3 0.3 0.2
v -0.3 0.3 0.1
v -0.3 0.3 -0.1
v -0.3 0.3 -0.2
v -0.3 0.4 0.1
v -0.3 0.4 -0.1
v -0.3 0.5 0.1
v -0.3 0.5 -0.1
v -0.3 0.7 0.2
v -0.3 0.7 0.1
v -0.3 0.7 -0.1
v -0.3 0.7 -0.2
v -0.2 0.5 0.3
v -0.2 0.5 0.2
v -0.2 0.6 0.3
v -0.2 0.6 0.2
v -0.1 0.6 0.3
v -0.1 0.6 0.2
v -0.1 0.7 0.3
v -0.1 0.7 0.2
v 0.1 0 0.1
v 0.1 0 -0.1
v 0.1 0.1 0.1
v 0.1 0.1 -0.1
v 0.1 0.3 0.1
v 0.1 0.3 -0.1
v 0.1 0.5 0.3
v 0.1 0.5 0.2
v 0.1 0.6 0.3
v 0.1 0.6 0.2
v 0.1 1.2 0.3
v 0.1 1.2 0.2
v 0.1 1.3 0.3
v 0.1 1.3 0.2
v 0.1 1.6 0.1
v 0.1 1.6 -0.2
v 0.1 1.8 0.1
v 0.1 1.8 -0.2
v 0.2 1.1 0.3
v 0.2 1.1 0.2
v 0.2 1.2 0.3
v 0.2 1.2 0.2
v 0.2 1.8 0.1
v 0.2 1.8 -0.2
v 0.2 1.9 0.1
v 0.2 1.9 -0.2
v 0.4 0.8 0.3
v 0.4 0.8 0.2
v 0.4 0.9 0.2
v 0.4 1.1 0.3
v 0.4 1.1 0.2
v -0.4 0.8 0.3
v -0.4 0.8 0.2
v -0.4 0.9 0.2
v -0.4 1.1 0.3
v -0.4 1.1 0.2
v -0.2 1.1 0.3
v -0.2 1.1 0.2
v -0.2 1.2 0.3
v -0.2 1.2 0.2
v -0.2 1.8 0.1
v -0.2 1.8 -0.2
v -0.2 1.9 0.1
v -0.2 1.9 -0.2
v -0.1 0 0.1
v -0.1 0 -0.1
v -0.1 0.1 0.1
v -0.1 0.1 -0.1
v -0.1 0.3 0.1
v -0.1 0.3 -0.1
v -0.1 0.5 0.3
v -0.1 0.5 0.2
v -0.1 0.6 0.3
v -0.1 0.6 0.2
v -0.1 1.2 0.3
v -0.1 1.2 0.2
v -0.1 1.3 0.3
v -0.1 1.3 0.2
v -0.1 1.6 0.1
v -0.1 1.6 -0.2
v -0.1 1.8 0.1
v -0.1 1.8 -0.2
v 0.1 0.6 0.3
v 0.1 0.6 0.2
v 0.1 0.7 0.3
v 0.1 0.7 0.2
v 0.2 0.5 0.3
v 0.2 0.5 0.2
v 0.2 0.6 0.3
v 0.2 0.6 0.2
v 0.3 0 0.1
v 0.3 0 -0.1
v 0.3 0.1 0.1
v 0.3 0.1 -0.1
v 0.3 0.3 0.2
v 0.3 0.3 0.1
v 0.3 0.3 -0.1
v 0.3 0.3 -0.2
v 0.3 0.4 0.1
v 0.3 0.4 -0.1
v 0.3 0.5 0.1
v 0.3 0.5 -0.1
v 0.3 0.7 0.2
v 0.3 0.7 0.1
v 0.3 0.7 -0.1
v 0.3 0.7 -0.2
v 0.4 0.4 0.1
v 0.4 0.4 -0.1
v 0.4 0.5 0.1
v 0.4 0.5 -0.1
v 0.4 0.7 0.1
v 0.4 0.7 -0.1
v 0.4 1.8 0.1
v 0.4 1.8 -0.2
v 0.4 1.9 0.1
v 0.4 1.9 -0.2
v 0.5 0.7 0.3
v 0.5 0.7 -0.4
v 0.5 1.5 0.3
v 0.5 1.5 0.1
v 0.5 1.5 -0.2
v 0.5 1.5 -0.4
v 0.5 1.8 0.1
v 0.5 1.8 -0.2
v -0.5 0.7 0.3
v -0.5 1.5 0.3
v -0.4 0.8 0.3
v -0.4 1.1 0.3
v -0.4 1.3 0.3
v -0.4 1.4 0.3
v -0.2 0.5 0.3
v -0.2 0.6 0.3
v -0.2 1.1 0.3
v -0.2 1.2 0.3
v -0.1 0.5 0.3
v -0.1 0.6 0.3
v -0.1 0.7 0.3
v -0.1 1.2 0.3
v -0.1 1.3 0.3
v 0.1 0.5 0.3
v 0.1 0.6 0.3
v 0.1 0.7 0.3
v 0.1 1.2 0.3
v 0.1 1.3 0.3
v 0.2 0.5 0.3
v 0.2 0.6 0.3
v 0.2 1.1 0.3
v 0.2 1.2 0.3
v 0.4 0.8 0.3
v 0.4 1.1 0.3
v 0.4 1.3 0.3
v 0.4 1.4 0.3
v 0.5 0.7 0.3
v 0.5 1.5 0.3
v -0.4 0.8 0.2
v -0.4 0.9 0.2
v -0.4 1.1 0.2
v -0.3 0.3 0.2
v -0.3 0.7 0.2
v -0.3 0.9 0.2
v -0.3 1.1 0.2
v -0.2 0.5 0.2
v -0.2 0.6 0.2
v -0.2 0.8 0.2
v -0.2 0.9 0.2
v -0.2 1.1 0.2
v -0.2 1.2 0.2
v -0.1 0.5 0.2
v -0.1 0.6 0.2
v -0.1 0.7 0.2
v -0.1 1.2 0.2
v -0.1 1.3 0.2
v 0.1 0.5 0.2
v 0.1 0.6 0.2
v 0.1 0.7 0.2
v 0.1 1.2 0.2
v 0.1 1.3 0.2
v 0.2 0.5 0.2
v 0.2 0.6 0.2
v 0.2 0.8 0.2
v 0.2 0.9 0.2
v 0.2 1.1 0.2
v 0.2 1.2 0.2
v 0.3 0.3 0.2
v 0.3 0.7 0.2
v 0.3 0.9 0.2
v 0.3 1.1 0.2
v 0.4 0.8 0.2
v 0.4 0.9 0.2
v 0.4 1.1 0.2
v -0.5 1.5 0.1
v -0.5 1.8 0.1
v -0.4 0.4 0.1
v -0.4 0.5 0.1
v -0.4 0.7 0.1
v -0.4 1.5 0.1
v -0.4 1.6 0.1
v -0.4 1.8 0.1
v -0.4 1.9 0.1
v -0.3 0 0.1
v -0.3 0.1 0.1
v -0.3 0.3 0.1
v -0.3 0.4 0.1
v -0.3 0.5 0.1
v -0.3 0.7 0.1
v -0.2 1.5 0.1
v -0.2 1.6 0.1
v -0.2 1.8 0.1
v -0.2 1.9 0.1
v -0.1 0 0.1
v -0.1 0.1 0.1
v -0.1 0.3 0.1
v -0.1 1.6 0.1
v -0.1 1.8 0.1
v 0.1 0 0.1
v 0.1 0.1 0.1
v 0.1 0.3 0.1
v 0.1 1.6 0.1
v 0.1 1.8 0.1
v 0.2 1.5 0.1
v 0.2 1.6 0.1
v 0.2 1.8 0.1
v 0.2 1.9 0.1
v 0.3 0 0.1
v 0.3 0.1 0.1
v 0.3 0.3 0.1
v 0.3 0.4 0.1
v 0.3 0.5 0.1
v 0.3 0.7 0.1
v 0.4 0.4 0.1
v 0.4 0.5 0.1
v 0.4 0.7 0.1
v 0.4 1.5 0.1
v 0.4 1.6 0.1
v 0.4 1.8 0.1
v 0.4 1.9 0.1
v 0.5 1.5 0.1
v 0.5 1.8 0.1
v -0.4 0.4 -0.1
v -0.4 0.5 -0.1
v -0.4 0.7 -0.1
v -0.3 0 -0.1
v -0.3 0.1 -0.1
v -0.3 0.3 -0.1
v -0.3 0.4 -0.1
v -0.3 0.5 -0.1
v -0.3 0.7 -0.1
v -0.1 0 -0.1
v -0.1 0.1 -0.1
v -0.1 0.3 -0.1
v 0.1 0 -0.1
v 0.1 0.1 -0.1
v 0.1 0.3 -0.1
v 0.3 0 -0.1
v 0.3 0.1 -0.1
v 0.3 0.3 -0.1
v 0.3 0.4 -0.1
v 0.3 0.5 -0.1
v 0.3 0.7 -0.1
v 0.4 0.4 -0.1
v 0.4 0.5 -0.1
v 0.4 0.7 -0.1
v -0.5 1.5 -0.2
v -0.5 1.8 -0.2
v -0.4 1.8 -0.2
v -0.4 1.9 -0.2
v -0.3 0.3 -0.2
v -0.3 0.7 -0.2
v -0.2 1.8 -0.2
v -0.2 1.9 -0.2
v -0.1 1.6 -0.2
v -0.1 1.8 -0.2
v 0.1 1.6 -0.2
v 0.1 1.8 -0.2
v 0.2 1.8 -0.2
v 0.2 1.9 -0.2
v 0.3 0.3 -0.2
v 0.3 0.7 -0.2
v 0.4 1.8 -0.2
v 0.4 1.9 -0.2
v 0.5 1.5 -0.2
v 0.5 1.8 -0.2
v -0.5 0.7 -0.4
v -0.5 1.5 -0.4
v 0.5 0.7 -0.4
v 0.5 1.5 -0.4
v -0.3 0 0.1
v -0.1 0 0.1
v 0.1 0 0.1
v 0.3 0 0.1
v -0.3 0 -0.1
v -0.1 0 -0.1
v 0.1 0 -0.1
v 0.3 0 -0.1
v -0.3 0.3 0.2
v 0.3 0.3 0.2
v -0.3 0.3 0.1
v -0.1 0.3 0.1
v 0.1 0.3 0.1
v 0.3 0.3 0.1
v -0.3 0.3 -0.1
v -0.1 0.3 -0.1
v 0.1 0.3 -0.1
v 0.3 0.3 -0.1
v -0.3 0.3 -0.2
v 0.3 0.3 -0.2
v -0.4 0.4 0.1
v -0.3 0.4 0.1
v 0.3 0.4 0.1
v 0.4 0.4 0.1
v -0.4 0.4 -0.1
v -0.3 0.4 -0.1
v 0.3 0.4 -0.1
v 0.4 0.4 -0.1
v -0.2 0.5 0.3
v -0.1 0.5 0.3
v 0.1 0.5 0.3
v 0.2 0.5 0.3
v -0.2 0.5 0.2
v -0.1 0.5 0.2
v 0.1 0.5 0.2
v 0.2 0.5 0.2
v -0.1 0.6 0.3
v 0.1 0.6 0.3
v -0.1 0.6 0.2
v 0.1 0.6 0.2
v -0.5 0.7 0.3
v -0.1 0.7 0.3
v 0.1 0.7 0.3
v 0.5 0.7 0.3
v -0.3 0.7 0.2
v -0.1 0.7 0.2
v 0.1 0.7 0.2
v 0.3 0.7 0.2
v -0.4 0.7 0.1
v -0.3 0.7 0.1
v 0.3 0.7 0.1
v 0.4 0.7 0.1
v -0.4 0.7 -0.1
v -0.3 0.7 -0.1
v 0.3 0.7 -0.1
v 0.4 0.7 -0.1
v -0.3 0.7 -0.2
v 0.3 0.7 -0.2
v -0.5 0.7 -0.4
v 0.5 0.7 -0.4
v -0.4 1.1 0.3
v -0.2 1.1 0.3
v 0.2 1.1 0.3
v 0.4 1.1 0.3
v -0.4 1.1 0.2
v -0.3 1.1 0.2
v -0.2 1.1 0.2
v 0.2 1.1 0.2
v 0.3 1.1 0.2
v 0.4 1.1 0.2
v -0.2 1.2 0.3
v -0.1 1.2 0.3
v 0.1 1.2 0.3
v 0.2 1.2 0.3
v -0.2 1.2 0.2
v -0.1 1.2 0.2
v 0.1 1.2 0.2
v 0.2 1.2 0.2
v -0.1 1.3 0.3
v 0.1 1.3 0.3
v -0.1 1.3 0.2
v 0.1 1.3 0.2
v -0.2 0.6 0.3
v -0.1 0.6 0.3
v 0.1 0.6 0.3
v 0.2 0.6 0.3
v -0.2 0.6 0.2
v -0.1 0.6 0.2
v 0.1 0.6 0.2
v 0.2 0.6 0.2
v -0.4 0.8 0.3
v 0.4 0.8 0.3
v -0.4 0.8 0.2
v -0.2 0.8 0.2
v 0.2 0.8 0.2
v 0.4 0.8 0.2
v -0.5 1.5 0.3
v 0.5 1.5 0.3
v -0.5 1.5 0.1
v -0.4 1.5 0.1
v -0.2 1.5 0.1
v 0.2 1.5 0.1
v 0.4 1.5 0.1
v 0.5 1.5 0.1
v -0.5 1.5 -0.2
v 0.5 1.5 -0.2
v -0.5 1.5 -0.4
v 0.5 1.5 -0.4
v -0.1 1.6 0.1
v 0.1 1.6 0.1
v -0.1 1.6 -0.2
v 0.1 1.6 -0.2
v -0.5 1.8 0.1
v -0.4 1.8 0.1
v -0.2 1.8 0.1
v -0.1 1.8 0.1
v 0.1 1.8 0.1
v 0.2 1.8 0.1
v 0.4 1.8 0.1
v 0.5 1.8 0.1
v -0.5 1.8 -0.2
v -0.4 1.8 -0.2
v -0.2 1.8 -0.2
v -0.1 1.8 -0.2
v 0.1 1.8 -0.2
v 0.2 1.8 -0.2
v 0.4 1.8 -0.2
v 0.5 1.8 -0.2
v -0.4 1.9 0.1
v -0.2 1.9 0.1
v 0.2 1.9 0.1
v 0.4 1.9 0.1
v -0.4 1.9 -0.2
v -0.2 1.9 -0.2
v 0.2 1.9 -0.2
v 0.4 1.9 -0.2

# faces
f 3/3/1 2/3/1 1/3/1
f 4/3/1 2/3/1 3/3/1
f 5/3/1 2/3/1 4/3/1
f 6/3/1 2/3/1 5/3/1
f 7/3/1 5/3/1 4/3/1
f 8/3/1 5/3/1 7/3/1
f 11/10/1 10/10/1 9/10/1
f 12/10/1 10/10/1 11/10/1
f 13/8/1 12/8/1 11/8/1
f 14/8/1 12/8/1 13/8/1
f 17/3/1 16/3/1 15/3/1
f 18/3/1 16/3/1 17/3/1
f 21/6/1 20/6/1 19/6/1
f 22/6/1 20/6/1 21/6/1
f 24/3/1 22/3/1 21/3/1
f 25/3/1 22/3/1 24/3/1
f 27/3/1 25/3/1 24/3/1
f 27/3/1 26/3/1 25/3/1
f 27/3/1 24/3/1 23/3/1
f 28/3/1 26/3/1 27/3/1
f 29/3/1 27/3/1 23/3/1
f 30/3/1 26/3/1 28/3/1
f 31/3/1 29/3/1 23/3/1
f 32/3/1 29/3/1 31/3/1
f 33/3/1 26/3/1 30/3/1
f 34/3/1 26/3/1 33/3/1
f 37/7/1 36/7/1 35/7/1
f 38/7/1 36/7/1 37/7/1
f 41/7/1 40/7/1 39/7/1
f 42/7/1 40/7/1 41/7/1
f 45/6/1 44/6/1 43/6/1
f 46/6/1 44/6/1 45/6/1
f 47/3/1 46/3/1 45/3/1
f 48/3/1 46/3/1 47/3/1
f 51/7/1 50/7/1 49/7/1
f 52/7/1 50/7/1 51/7/1
f 55/8/1 54/8/1 53/8/1
f 56/8/1 54/8/1 55/8/1
f 59/3/1 58/3/1 57/3/1
f 60/3/1 58/3/1 59/3/1
f 63/8/1 62/8/1 61/8/1
f 64/8/1 62/8/1 63/8/1
f 67/3/1 66/3/1 65/3/1
f 68/3/1 66/3/1 67/3/1
f 71/3/1 70/3/1 69/3/1
f 72/3/1 71/3/1 69/3/1
f 73/3/1 71/3/1 72/3/1
f 74/3/2 75/3/2 76/3/2
f 74/3/2 76/3/2 77/3/2
f 77/3/2 76/3/2 78/3/2
f 79/8/2 80/8/2 81/8/2
f 81/8/2 80/8/2 82/8/2
f 83/3/2 84/3/2 85/3/2
f 85/3/2 84/3/2 86/3/2
f 87/6/2 88/6/2 89/6/2
f 89/6/2 88/6/2 90/6/2
f 89/3/2 90/3/2 91/3/2
f 91/3/2 90/3/2 92/3/2
f 93/7/2 94/7/2 95/7/2
f 95/7/2 94/7/2 96/7/2
f 97/8/2 98/8/2 99/8/2
f 99/8/2 98/8/2 100/8/2
f 101/3/2 102/3/2 103/3/2
f 103/3/2 102/3/2 104/3/2
f 105/7/2 106/7/2 107/7/2
f 107/7/2 106/7/2 108/7/2
f 109/7/2 110/7/2 111/7/2
f 111/7/2 110/7/2 112/7/2
f 113/6/2 114/6/2 115/6/2
f 115/6/2 114/6/2 116/6/2
f 115/3/2 116/3/2 118/3/2
f 118/3/2 116/3/2 119/3/2
f 118/3/2 119/3/2 121/3/2
f 119/3/2 120/3/2 121/3/2
f 117/3/2 118/3/2 121/3/2
f 121/3/2 120/3/2 122/3/2
f 117/3/2 121/3/2 123/3/2
f 122/3/2 120/3/2 124/3/2
f 117/3/2 123/3/2 125/3/2
f 125/3/2 123/3/2 126/3/2
f 124/3/2 120/3/2 127/3/2
f 127/3/2 120/3/2 128/3/2
f 129/10/2 130/10/2 131/10/2
f 131/10/2 130/10/2 132/10/2
f 131/8/2 132/8/2 133/8/2
f 133/8/2 132/8/2 134/8/2
f 135/3/2 136/3/2 137/3/2
f 137/3/2 136/3/2 138/3/2
f 139/3/2 140/3/2 141/3/2
f 141/3/2 140/3/2 142/3/2
f 142/3/2 140/3/2 143/3/2
f 143/3/2 140/3/2 144/3/2
f 142/3/2 143/3/2 145/3/2
f 145/3/2 143/3/2 146/3/2
f 149/3/3 148/3/3 147/3/3
f 150/3/3 148/3/3 149/3/3
f 151/3/3 148/3/3 150/3/3
f 152/3/3 148/3/3 151/3/3
f 155/8/3 151/8/3 150/8/3
f 156/8/3 151/8/3 155/8/3
f 157/7/3 154/7/3 153/7/3
f 158/7/3 154/7/3 157/7/3
f 159/3/3 149/3/3 147/3/3
f 160/8/3 151/8/3 156/8/3
f 161/9/3 152/9/3 151/9/3
f 161/8/3 151/8/3 160/8/3
f 163/7/3 159/7/3 158/7/3
f 164/3/3 149/3/3 159/3/3
f 164/7/3 159/7/3 163/7/3
f 166/9/3 152/9/3 161/9/3
f 167/7/3 163/7/3 162/7/3
f 168/7/3 163/7/3 167/7/3
f 170/8/3 166/8/3 165/8/3
f 171/3/3 149/3/3 164/3/3
f 172/8/3 170/8/3 169/8/3
f 173/8/3 166/8/3 170/8/3
f 173/9/3 152/9/3 166/9/3
f 173/8/3 170/8/3 172/8/3
f 174/3/3 148/3/3 152/3/3
f 174/9/3 152/9/3 173/9/3
f 175/3/3 171/3/3 164/3/3
f 175/3/3 173/3/3 172/3/3
f 175/3/3 174/3/3 173/3/3
f 175/3/3 172/3/3 171/3/3
f 176/3/3 148/3/3 174/3/3
f 176/3/3 174/3/3 175/3/3
f 182/1/3 178/1/3 177/1/3
f 182/7/3 179/7/3 178/7/3
f 183/7/3 179/7/3 182/7/3
f 184/3/3 181/3/3 180/3/3
f 185/3/3 181/3/3 184/3/3
f 186/1/3 182/1/3 177/1/3
f 187/12/3 183/12/3 182/12/3
f 187/1/3 182/1/3 186/1/3
f 188/12/3 183/12/3 187/12/3
f 190/3/3 184/3/3 180/3/3
f 191/3/3 181/3/3 185/3/3
f 192/3/3 181/3/3 191/3/3
f 193/7/3 188/7/3 187/7/3
f 193/7/3 189/7/3 188/7/3
f 193/7/3 187/7/3 186/7/3
f 195/3/3 190/3/3 180/3/3
f 195/3/3 191/3/3 190/3/3
f 196/3/3 191/3/3 195/3/3
f 198/11/3 194/11/3 193/11/3
f 198/7/3 193/7/3 186/7/3
f 199/11/3 194/11/3 198/11/3
f 200/3/3 195/3/3 180/3/3
f 201/3/3 197/3/3 196/3/3
f 202/7/3 198/7/3 186/7/3
f 203/7/3 198/7/3 202/7/3
f 204/7/3 198/7/3 203/7/3
f 205/7/3 198/7/3 204/7/3
f 206/3/3 200/3/3 180/3/3
f 206/3/3 201/3/3 200/3/3
f 207/3/3 197/3/3 201/3/3
f 207/3/3 201/3/3 206/3/3
f 208/12/3 204/12/3 203/12/3
f 208/1/3 203/1/3 202/1/3
f 209/12/3 204/12/3 208/12/3
f 210/1/3 208/1/3 202/1/3
f 211/7/3 209/7/3 208/7/3
f 211/1/3 208/1/3 210/1/3
f 212/7/3 209/7/3 211/7/3
f 218/3/3 214/3/3 213/3/3
f 219/3/3 214/3/3 218/3/3
f 220/3/3 214/3/3 219/3/3
f 225/10/3 216/10/3 215/10/3
f 226/8/3 217/8/3 216/8/3
f 226/10/3 216/10/3 225/10/3
f 227/8/3 217/8/3 226/8/3
f 228/9/3 219/9/3 218/9/3
f 229/8/3 220/8/3 219/8/3
f 229/9/3 219/9/3 228/9/3
f 230/3/3 221/3/3 220/3/3
f 230/8/3 220/8/3 229/8/3
f 231/3/3 221/3/3 230/3/3
f 232/6/3 223/6/3 222/6/3
f 233/3/3 224/3/3 223/3/3
f 233/6/3 223/6/3 232/6/3
f 234/3/3 224/3/3 233/3/3
f 235/3/3 229/3/3 228/3/3
f 235/3/3 230/3/3 229/3/3
f 236/3/3 230/3/3 235/3/3
f 240/3/3 235/3/3 228/3/3
f 242/3/3 240/3/3 228/3/3
f 242/3/3 241/3/3 240/3/3
f 243/3/3 241/3/3 242/3/3
f 244/3/3 241/3/3 243/3/3
f 246/6/3 238/6/3 237/6/3
f 247/3/3 239/3/3 238/3/3
f 247/6/3 238/6/3 246/6/3
f 248/3/3 239/3/3 247/3/3
f 252/10/3 250/10/3 249/10/3
f 253/8/3 251/8/3 250/8/3
f 253/10/3 250/10/3 252/10/3
f 254/8/3 251/8/3 253/8/3
f 255/9/3 243/9/3 242/9/3
f 256/8/3 244/8/3 243/8/3
f 256/9/3 243/9/3 255/9/3
f 257/3/3 245/3/3 244/3/3
f 257/8/3 244/8/3 256/8/3
f 258/3/3 245/3/3 257/3/3
f 259/3/3 256/3/3 255/3/3
f 259/3/3 257/3/3 256/3/3
f 260/3/3 257/3/3 259/3/3
f 261/10/4 262/10/4 267/10/4
f 262/8/4 263/8/4 268/8/4
f 267/10/4 262/10/4 268/10/4
f 268/8/4 263/8/4 269/8/4
f 264/6/4 265/6/4 270/6/4
f 265/3/4 266/3/4 271/3/4
f 270/6/4 265/6/4 271/6/4
f 271/3/4 266/3/4 272/3/4
f 273/6/4 274/6/4 276/6/4
f 274/3/4 275/3/4 277/3/4
f 276/6/4 274/6/4 277/6/4
f 277/3/4 275/3/4 278/3/4
f 279/10/4 280/10/4 282/10/4
f 280/8/4 281/8/4 283/8/4
f 282/10/4 280/10/4 283/10/4
f 283/8/4 281/8/4 284/8/4
f 285/3/4 286/3/4 287/3/4
f 285/3/4 287/3/4 291/3/4
f 287/3/4 288/3/4 291/3/4
f 291/3/4 288/3/4 292/3/4
f 285/3/4 291/3/4 293/3/4
f 293/3/4 291/3/4 294/3/4
f 285/3/4 293/3/4 295/3/4
f 295/3/4 296/3/4 297/3/4
f 289/3/4 290/3/4 299/3/4
f 299/3/4 290/3/4 300/3/4
f 297/3/4 298/3/4 301/3/4
f 295/3/4 297/3/4 301/3/4
f 301/3/4 298/3/4 302/3/4
f 285/3/4 295/3/4 303/3/4
f 295/3/4 301/3/4 303/3/4
f 303/3/4 301/3/4 304/3/4
f 305/3/4 306/3/4 307/3/4
f 307/3/4 306/3/4 308/3/4
f 313/6/5 310/6/5 309/6/5
f 314/6/5 310/6/5 313/6/5
f 315/6/5 312/6/5 311/6/5
f 316/6/5 312/6/5 315/6/5
f 319/3/5 318/3/5 317/3/5
f 320/3/5 318/3/5 319/3/5
f 321/3/5 318/3/5 320/3/5
f 322/3/5 318/3/5 321/3/5
f 324/3/5 321/3/5 320/3/5
f 325/3/5 321/3/5 324/3/5
f 327/3/5 324/3/5 323/3/5
f 327/3/5 326/3/5 325/3/5
f 327/3/5 325/3/5 324/3/5
f 328/3/5 326/3/5 327/3/5
f 333/10/5 330/10/5 329/10/5
f 334/10/5 330/10/5 333/10/5
f 335/10/5 332/10/5 331/10/5
f 336/10/5 332/10/5 335/10/5
f 341/7/5 338/7/5 337/7/5
f 342/7/5 338/7/5 341/7/5
f 343/7/5 340/7/5 339/7/5
f 344/7/5 340/7/5 343/7/5
f 347/7/5 346/7/5 345/7/5
f 348/7/5 346/7/5 347/7/5
f 353/3/5 350/3/5 349/3/5
f 354/3/5 350/3/5 353/3/5
f 355/3/5 352/3/5 351/3/5
f 356/3/5 352/3/5 355/3/5
f 357/3/5 353/3/5 349/3/5
f 358/3/5 353/3/5 357/3/5
f 359/3/5 352/3/5 356/3/5
f 360/3/5 352/3/5 359/3/5
f 361/3/5 357/3/5 349/3/5
f 364/3/5 352/3/5 360/3/5
f 365/3/5 362/3/5 361/3/5
f 366/3/5 364/3/5 363/3/5
f 367/3/5 365/3/5 361/3/5
f 367/3/5 366/3/5 365/3/5
f 367/3/5 361/3/5 349/3/5
f 368/3/5 364/3/5 366/3/5
f 368/3/5 366/3/5 367/3/5
f 368/3/5 352/3/5 364/3/5
f 373/8/5 370/8/5 369/8/5
f 374/8/5 370/8/5 373/8/5
f 375/8/5 370/8/5 374/8/5
f 376/8/5 372/8/5 371/8/5
f 377/8/5 372/8/5 376/8/5
f 378/8/5 372/8/5 377/8/5
f 383/8/5 380/8/5 379/8/5
f 384/8/5 380/8/5 383/8/5
f 385/8/5 382/8/5 381/8/5
f 386/8/5 382/8/5 385/8/5
f 389/9/5 388/9/5 387/9/5
f 390/9/5 388/9/5 389/9/5
f 391/7/6 392/7/6 395/7/6
f 395/7/6 392/7/6 396/7/6
f 393/7/6 394/7/6 397/7/6
f 397/7/6 394/7/6 398/7/6
f 399/3/6 400/3/6 401/3/6
f 401/3/6 400/3/6 402/3/6
f 402/3/6 400/3/6 403/3/6
f 403/3/6 400/3/6 404/3/6
f 405/3/6 406/3/6 407/3/6
f 407/3/6 406/3/6 408/3/6
f 408/3/6 406/3/6 409/3/6
f 409/3/6 406/3/6 410/3/6
f 410/3/6 406/3/6 411/3/6
f 411/3/6 406/3/6 412/3/6
f 413/3/6 414/3/6 415/3/6
f 415/3/6 414/3/6 416/3/6
f 417/3/6 418/3/6 419/3/6
f 419/3/6 418/3/6 420/3/6
f 421/3/6 422/3/6 429/3/6
f 429/3/6 422/3/6 430/3/6
f 423/3/6 424/3/6 431/3/6
f 431/3/6 424/3/6 432/3/6
f 425/3/6 426/3/6 433/3/6
f 433/3/6 426/3/6 434/3/6
f 427/3/6 428/3/6 435/3/6
f 435/3/6 428/3/6 436/3/6
f 437/3/6 438/3/6 441/3/6
f 441/3/6 438/3/6 442/3/6
f 439/3/6 440/3/6 443/3/6
f 443/3/6 440/3/6 444/3/6
