# MagicaVoxel @ Ephtracy

# group
o 

# material
mtllib purple.mtl
usemtl palette

# normals
vn -1 0 0
vn 1 0 0
vn 0 0 1
vn 0 0 -1
vn 0 -1 0
vn 0 1 0

# texcoords
vt 0.0214844 0.5
vt 0.837891 0.5
vt 0.892578 0.5
vt 0.904297 0.5
vt 0.912109 0.5
vt 0.916016 0.5
vt 0.958984 0.5
vt 0.962891 0.5
vt 0.990234 0.5

# verts
v -0.5 0.7 0.3
v -0.5 0.7 -0.4
v -0.5 1.5 0.3
v -0.5 1.5 -0.4
v -0.4 0.4 0.1
v -0.4 0.4 -0.1
v -0.4 0.5 0.1
v -0.4 0.5 -0.1
v -0.4 0.7 0.1
v -0.4 0.7 -0.1
v -0.4 1.5 0.1
v -0.4 1.5 -0.2
v -0.4 1.9 0.1
v -0.4 1.9 -0.2
v -0.3 0 0.1
v -0.3 0 -0.1
v -0.3 0.1 0.1
v -0.3 0.1 -0.1
v -0.3 0.3 0.2
v -0.3 0.3 0.1
v -0.3 0.3 -0.1
v -0.3 0.3 -0.2
v -0.3 0.4 0.1
v -0.3 0.4 -0.1
v -0.3 0.5 0.1
v -0.3 0.5 -0.1
v -0.3 0.7 0.2
v -0.3 0.7 0.1
v -0.3 0.7 -0.1
v -0.3 0.7 -0.2
v -0.3 1.1 0.3
v -0.3 1.1 0.2
v -0.3 1.2 0.3
v -0.3 1.2 0.2
v -0.2 0.5 0.3
v -0.2 0.5 0.2
v -0.2 0.6 0.3
v -0.2 0.6 0.2
v -0.2 0.7 0.3
v -0.2 0.7 0.2
v 0.1 0 0.1
v 0.1 0 -0.1
v 0.1 0.1 0.1
v 0.1 0.1 -0.1
v 0.1 0.3 0.1
v 0.1 0.3 -0.1
v 0.1 0.5 0.3
v 0.1 0.5 0.2
v 0.1 0.6 0.3
v 0.1 0.6 0.2
v 0.1 0.7 0.3
v 0.1 0.7 0.2
v 0.1 1.2 0.3
v 0.1 1.2 0.2
v 0.1 1.3 0.3
v 0.1 1.3 0.2
v 0.1 1.5 0.1
v 0.1 1.5 -0.2
v 0.1 1.6 0.2
v 0.1 1.6 0.1
v 0.1 1.8 0.2
v 0.1 1.8 -0.2
v 0.2 1.1 0.3
v 0.2 1.1 0.2
v 0.2 1.2 0.3
v 0.2 1.2 0.2
v 0.4 0.8 0.3
v 0.4 0.8 0.2
v 0.4 0.9 0.2
v 0.4 1.2 0.3
v 0.4 1.2 0.2
v -0.4 0.8 0.3
v -0.4 0.8 0.2
v -0.4 0.9 0.2
v -0.4 1.2 0.3
v -0.4 1.2 0.2
v -0.2 1.1 0.3
v -0.2 1.1 0.2
v -0.2 1.2 0.3
v -0.2 1.2 0.2
v -0.1 0 0.1
v -0.1 0 -0.1
v -0.1 0.1 0.1
v -0.1 0.1 -0.1
v -0.1 0.3 0.1
v -0.1 0.3 -0.1
v -0.1 0.5 0.3
v -0.1 0.5 0.2
v -0.1 0.6 0.3
v -0.1 0.6 0.2
v -0.1 0.7 0.3
v -0.1 0.7 0.2
v -0.1 1.2 0.3
v -0.1 1.2 0.2
v -0.1 1.3 0.3
v -0.1 1.3 0.2
v -0.1 1.5 0.1
v -0.1 1.5 -0.2
v -0.1 1.9 0.1
v -0.1 1.9 -0.2
v 0.2 0.5 0.3
v 0.2 0.5 0.2
v 0.2 0.6 0.3
v 0.2 0.6 0.2
v 0.2 0.7 0.3
v 0.2 0.7 0.2
v 0.3 0 0.1
v 0.3 0 -0.1
v 0.3 0.1 0.1
v 0.3 0.1 -0.1
v 0.3 0.3 0.2
v 0.3 0.3 0.1
v 0.3 0.3 -0.1
v 0.3 0.3 -0.2
v 0.3 0.4 0.1
v 0.3 0.4 -0.1
v 0.3 0.5 0.1
v 0.3 0.5 -0.1
v 0.3 0.7 0.2
v 0.3 0.7 0.1
v 0.3 0.7 -0.1
v 0.3 0.7 -0.2
v 0.3 1.1 0.3
v 0.3 1.1 0.2
v 0.3 1.2 0.3
v 0.3 1.2 0.2
v 0.4 0.4 0.1
v 0.4 0.4 -0.1
v 0.4 0.5 0.1
v 0.4 0.5 -0.1
v 0.4 0.7 0.1
v 0.4 0.7 -0.1
v 0.4 1.5 0.1
v 0.4 1.5 -0.2
v 0.4 1.6 0.2
v 0.4 1.6 0.1
v 0.4 1.8 0.2
v 0.4 1.8 -0.2
v 0.5 0.7 0.3
v 0.5 0.7 -0.4
v 0.5 1.5 0.3
v 0.5 1.5 -0.4
v -0.5 0.7 0.3
v -0.5 1.5 0.3
v -0.4 0.8 0.3
v -0.4 1.2 0.3
v -0.4 1.3 0.3
v -0.4 1.4 0.3
v -0.3 1.1 0.3
v -0.3 1.2 0.3
v -0.2 0.5 0.3
v -0.2 0.6 0.3
v -0.2 0.7 0.3
v -0.2 1.1 0.3
v -0.2 1.2 0.3
v -0.1 0.5 0.3
v -0.1 0.6 0.3
v -0.1 0.7 0.3
v -0.1 1.2 0.3
v -0.1 1.3 0.3
v 0.1 0.5 0.3
v 0.1 0.6 0.3
v 0.1 0.7 0.3
v 0.1 1.2 0.3
v 0.1 1.3 0.3
v 0.2 0.5 0.3
v 0.2 0.6 0.3
v 0.2 0.7 0.3
v 0.2 1.1 0.3
v 0.2 1.2 0.3
v 0.3 1.1 0.3
v 0.3 1.2 0.3
v 0.4 0.8 0.3
v 0.4 1.2 0.3
v 0.4 1.3 0.3
v 0.4 1.4 0.3
v 0.5 0.7 0.3
v 0.5 1.5 0.3
v -0.4 0.8 0.2
v -0.4 0.9 0.2
v -0.4 1.2 0.2
v -0.3 0.3 0.2
v -0.3 0.7 0.2
v -0.3 0.9 0.2
v -0.3 1.1 0.2
v -0.3 1.2 0.2
v -0.2 0.5 0.2
v -0.2 0.6 0.2
v -0.2 0.7 0.2
v -0.2 0.8 0.2
v -0.2 0.9 0.2
v -0.2 1.1 0.2
v -0.2 1.2 0.2
v -0.1 0.5 0.2
v -0.1 0.6 0.2
v -0.1 0.7 0.2
v -0.1 1.2 0.2
v -0.1 1.3 0.2
v 0.1 0.5 0.2
v 0.1 0.6 0.2
v 0.1 0.7 0.2
v 0.1 1.2 0.2
v 0.1 1.3 0.2
v 0.1 1.6 0.2
v 0.1 1.8 0.2
v 0.2 0.5 0.2
v 0.2 0.6 0.2
v 0.2 0.7 0.2
v 0.2 0.8 0.2
v 0.2 0.9 0.2
v 0.2 1.1 0.2
v 0.2 1.2 0.2
v 0.3 0.3 0.2
v 0.3 0.7 0.2
v 0.3 0.9 0.2
v 0.3 1.1 0.2
v 0.3 1.2 0.2
v 0.4 0.8 0.2
v 0.4 0.9 0.2
v 0.4 1.2 0.2
v 0.4 1.6 0.2
v 0.4 1.8 0.2
v -0.4 0.4 0.1
v -0.4 0.5 0.1
v -0.4 0.7 0.1
v -0.4 1.5 0.1
v -0.4 1.9 0.1
v -0.3 0 0.1
v -0.3 0.1 0.1
v -0.3 0.3 0.1
v -0.3 0.4 0.1
v -0.3 0.5 0.1
v -0.3 0.7 0.1
v -0.3 1.5 0.1
v -0.3 1.7 0.1
v -0.2 1.5 0.1
v -0.2 1.7 0.1
v -0.1 0 0.1
v -0.1 0.1 0.1
v -0.1 0.3 0.1
v -0.1 1.5 0.1
v -0.1 1.9 0.1
v 0.1 0 0.1
v 0.1 0.1 0.1
v 0.1 0.3 0.1
v 0.1 1.5 0.1
v 0.1 1.6 0.1
v 0.2 1.5 0.1
v 0.2 1.6 0.1
v 0.3 0 0.1
v 0.3 0.1 0.1
v 0.3 0.3 0.1
v 0.3 0.4 0.1
v 0.3 0.5 0.1
v 0.3 0.7 0.1
v 0.3 1.5 0.1
v 0.3 1.6 0.1
v 0.4 0.4 0.1
v 0.4 0.5 0.1
v 0.4 0.7 0.1
v 0.4 1.5 0.1
v 0.4 1.6 0.1
v -0.4 0.4 -0.1
v -0.4 0.5 -0.1
v -0.4 0.7 -0.1
v -0.3 0 -0.1
v -0.3 0.1 -0.1
v -0.3 0.3 -0.1
v -0.3 0.4 -0.1
v -0.3 0.5 -0.1
v -0.3 0.7 -0.1
v -0.1 0 -0.1
v -0.1 0.1 -0.1
v -0.1 0.3 -0.1
v 0.1 0 -0.1
v 0.1 0.1 -0.1
v 0.1 0.3 -0.1
v 0.3 0 -0.1
v 0.3 0.1 -0.1
v 0.3 0.3 -0.1
v 0.3 0.4 -0.1
v 0.3 0.5 -0.1
v 0.3 0.7 -0.1
v 0.4 0.4 -0.1
v 0.4 0.5 -0.1
v 0.4 0.7 -0.1
v -0.4 1.5 -0.2
v -0.4 1.9 -0.2
v -0.3 0.3 -0.2
v -0.3 0.7 -0.2
v -0.1 1.5 -0.2
v -0.1 1.9 -0.2
v 0.1 1.5 -0.2
v 0.1 1.8 -0.2
v 0.3 0.3 -0.2
v 0.3 0.7 -0.2
v 0.4 1.5 -0.2
v 0.4 1.8 -0.2
v -0.5 0.7 -0.4
v -0.5 1.5 -0.4
v 0.5 0.7 -0.4
v 0.5 1.5 -0.4
v -0.3 0 0.1
v -0.1 0 0.1
v 0.1 0 0.1
v 0.3 0 0.1
v -0.3 0 -0.1
v -0.1 0 -0.1
v 0.1 0 -0.1
v 0.3 0 -0.1
v -0.3 0.3 0.2
v 0.3 0.3 0.2
v -0.3 0.3 0.1
v -0.1 0.3 0.1
v 0.1 0.3 0.1
v 0.3 0.3 0.1
v -0.3 0.3 -0.1
v -0.1 0.3 -0.1
v 0.1 0.3 -0.1
v 0.3 0.3 -0.1
v -0.3 0.3 -0.2
v 0.3 0.3 -0.2
v -0.4 0.4 0.1
v -0.3 0.4 0.1
v 0.3 0.4 0.1
v 0.4 0.4 0.1
v -0.4 0.4 -0.1
v -0.3 0.4 -0.1
v 0.3 0.4 -0.1
v 0.4 0.4 -0.1
v -0.2 0.5 0.3
v -0.1 0.5 0.3
v 0.1 0.5 0.3
v 0.2 0.5 0.3
v -0.2 0.5 0.2
v -0.1 0.5 0.2
v 0.1 0.5 0.2
v 0.2 0.5 0.2
v -0.5 0.7 0.3
v -0.2 0.7 0.3
v -0.1 0.7 0.3
v 0.1 0.7 0.3
v 0.2 0.7 0.3
v 0.5 0.7 0.3
v -0.3 0.7 0.2
v -0.2 0.7 0.2
v -0.1 0.7 0.2
v 0.1 0.7 0.2
v 0.2 0.7 0.2
v 0.3 0.7 0.2
v -0.4 0.7 0.1
v -0.3 0.7 0.1
v 0.3 0.7 0.1
v 0.4 0.7 0.1
v -0.4 0.7 -0.1
v -0.3 0.7 -0.1
v 0.3 0.7 -0.1
v 0.4 0.7 -0.1
v -0.3 0.7 -0.2
v 0.3 0.7 -0.2
v -0.5 0.7 -0.4
v 0.5 0.7 -0.4
v -0.3 1.1 0.3
v -0.2 1.1 0.3
v 0.2 1.1 0.3
v 0.3 1.1 0.3
v -0.3 1.1 0.2
v -0.2 1.1 0.2
v 0.2 1.1 0.2
v 0.3 1.1 0.2
v -0.4 1.2 0.3
v -0.3 1.2 0.3
v -0.2 1.2 0.3
v -0.1 1.2 0.3
v 0.1 1.2 0.3
v 0.2 1.2 0.3
v 0.3 1.2 0.3
v 0.4 1.2 0.3
v -0.4 1.2 0.2
v -0.3 1.2 0.2
v -0.2 1.2 0.2
v -0.1 1.2 0.2
v 0.1 1.2 0.2
v 0.2 1.2 0.2
v 0.3 1.2 0.2
v 0.4 1.2 0.2
v -0.1 1.3 0.3
v 0.1 1.3 0.3
v -0.1 1.3 0.2
v 0.1 1.3 0.2
v 0.1 1.6 0.2
v 0.4 1.6 0.2
v 0.1 1.6 0.1
v 0.2 1.6 0.1
v 0.3 1.6 0.1
v 0.4 1.6 0.1
v -0.4 0.8 0.3
v 0.4 0.8 0.3
v -0.4 0.8 0.2
v -0.2 0.8 0.2
v 0.2 0.8 0.2
v 0.4 0.8 0.2
v -0.5 1.5 0.3
v 0.5 1.5 0.3
v -0.4 1.5 0.1
v -0.3 1.5 0.1
v -0.2 1.5 0.1
v -0.1 1.5 0.1
v 0.1 1.5 0.1
v 0.2 1.5 0.1
v 0.3 1.5 0.1
v 0.4 1.5 0.1
v -0.4 1.5 -0.2
v -0.1 1.5 -0.2
v 0.1 1.5 -0.2
v 0.4 1.5 -0.2
v -0.5 1.5 -0.4
v 0.5 1.5 -0.4
v 0.1 1.8 0.2
v 0.4 1.8 0.2
v 0.1 1.8 -0.2
v 0.4 1.8 -0.2
v -0.4 1.9 0.1
v -0.1 1.9 0.1
v -0.4 1.9 -0.2
v -0.1 1.9 -0.2

# faces
f 3/2/1 2/2/1 1/2/1
f 4/2/1 2/2/1 3/2/1
f 7/7/1 6/7/1 5/7/1
f 8/7/1 6/7/1 7/7/1
f 9/4/1 8/4/1 7/4/1
f 10/4/1 8/4/1 9/4/1
f 13/2/1 12/2/1 11/2/1
f 14/2/1 12/2/1 13/2/1
f 17/5/1 16/5/1 15/5/1
f 18/5/1 16/5/1 17/5/1
f 20/2/1 18/2/1 17/2/1
f 21/2/1 18/2/1 20/2/1
f 23/2/1 21/2/1 20/2/1
f 23/2/1 22/2/1 21/2/1
f 23/2/1 20/2/1 19/2/1
f 24/2/1 22/2/1 23/2/1
f 25/2/1 23/2/1 19/2/1
f 26/2/1 22/2/1 24/2/1
f 27/2/1 25/2/1 19/2/1
f 28/2/1 25/2/1 27/2/1
f 29/2/1 22/2/1 26/2/1
f 30/2/1 22/2/1 29/2/1
f 33/4/1 32/4/1 31/4/1
f 34/4/1 32/4/1 33/4/1
f 37/6/1 36/6/1 35/6/1
f 38/6/1 36/6/1 37/6/1
f 39/2/1 38/2/1 37/2/1
f 40/2/1 38/2/1 39/2/1
f 43/5/1 42/5/1 41/5/1
f 44/5/1 42/5/1 43/5/1
f 45/2/1 44/2/1 43/2/1
f 46/2/1 44/2/1 45/2/1
f 49/6/1 48/6/1 47/6/1
f 50/6/1 48/6/1 49/6/1
f 51/2/1 50/2/1 49/2/1
f 52/2/1 50/2/1 51/2/1
f 55/4/1 54/4/1 53/4/1
f 56/4/1 54/4/1 55/4/1
f 60/2/1 58/2/1 57/2/1
f 61/2/1 60/2/1 59/2/1
f 62/2/1 58/2/1 60/2/1
f 62/2/1 60/2/1 61/2/1
f 65/4/1 64/4/1 63/4/1
f 66/4/1 64/4/1 65/4/1
f 69/2/1 68/2/1 67/2/1
f 70/2/1 69/2/1 67/2/1
f 71/2/1 69/2/1 70/2/1
f 72/2/2 73/2/2 74/2/2
f 72/2/2 74/2/2 75/2/2
f 75/2/2 74/2/2 76/2/2
f 77/4/2 78/4/2 79/4/2
f 79/4/2 78/4/2 80/4/2
f 81/5/2 82/5/2 83/5/2
f 83/5/2 82/5/2 84/5/2
f 83/2/2 84/2/2 85/2/2
f 85/2/2 84/2/2 86/2/2
f 87/6/2 88/6/2 89/6/2
f 89/6/2 88/6/2 90/6/2
f 89/2/2 90/2/2 91/2/2
f 91/2/2 90/2/2 92/2/2
f 93/4/2 94/4/2 95/4/2
f 95/4/2 94/4/2 96/4/2
f 97/2/2 98/2/2 99/2/2
f 99/2/2 98/2/2 100/2/2
f 101/6/2 102/6/2 103/6/2
f 103/6/2 102/6/2 104/6/2
f 103/2/2 104/2/2 105/2/2
f 105/2/2 104/2/2 106/2/2
f 107/5/2 108/5/2 109/5/2
f 109/5/2 108/5/2 110/5/2
f 109/2/2 110/2/2 112/2/2
f 112/2/2 110/2/2 113/2/2
f 112/2/2 113/2/2 115/2/2
f 113/2/2 114/2/2 115/2/2
f 111/2/2 112/2/2 115/2/2
f 115/2/2 114/2/2 116/2/2
f 111/2/2 115/2/2 117/2/2
f 116/2/2 114/2/2 118/2/2
f 111/2/2 117/2/2 119/2/2
f 119/2/2 117/2/2 120/2/2
f 118/2/2 114/2/2 121/2/2
f 121/2/2 114/2/2 122/2/2
f 123/4/2 124/4/2 125/4/2
f 125/4/2 124/4/2 126/4/2
f 127/7/2 128/7/2 129/7/2
f 129/7/2 128/7/2 130/7/2
f 129/4/2 130/4/2 131/4/2
f 131/4/2 130/4/2 132/4/2
f 133/2/2 134/2/2 136/2/2
f 135/2/2 136/2/2 137/2/2
f 136/2/2 134/2/2 138/2/2
f 137/2/2 136/2/2 138/2/2
f 139/2/2 140/2/2 141/2/2
f 141/2/2 140/2/2 142/2/2
f 145/2/3 144/2/3 143/2/3
f 146/2/3 144/2/3 145/2/3
f 147/2/3 144/2/3 146/2/3
f 148/2/3 144/2/3 147/2/3
f 150/4/3 147/4/3 146/4/3
f 153/2/3 145/2/3 143/2/3
f 154/4/3 150/4/3 149/4/3
f 155/4/3 147/4/3 150/4/3
f 155/4/3 150/4/3 154/4/3
f 156/6/3 152/6/3 151/6/3
f 157/2/3 153/2/3 152/2/3
f 157/6/3 152/6/3 156/6/3
f 158/2/3 145/2/3 153/2/3
f 158/2/3 153/2/3 157/2/3
f 159/4/3 147/4/3 155/4/3
f 160/3/3 148/3/3 147/3/3
f 160/4/3 147/4/3 159/4/3
f 163/2/3 145/2/3 158/2/3
f 165/3/3 148/3/3 160/3/3
f 166/6/3 162/6/3 161/6/3
f 167/2/3 163/2/3 162/2/3
f 167/6/3 162/6/3 166/6/3
f 168/2/3 145/2/3 163/2/3
f 168/2/3 163/2/3 167/2/3
f 170/4/3 165/4/3 164/4/3
f 171/4/3 170/4/3 169/4/3
f 172/4/3 165/4/3 170/4/3
f 172/4/3 170/4/3 171/4/3
f 173/2/3 145/2/3 168/2/3
f 174/4/3 165/4/3 172/4/3
f 175/3/3 148/3/3 165/3/3
f 175/4/3 165/4/3 174/4/3
f 176/2/3 144/2/3 148/2/3
f 176/3/3 148/3/3 175/3/3
f 177/2/3 173/2/3 168/2/3
f 177/2/3 175/2/3 174/2/3
f 177/2/3 176/2/3 175/2/3
f 177/2/3 174/2/3 173/2/3
f 178/2/3 144/2/3 176/2/3
f 178/2/3 176/2/3 177/2/3
f 184/1/3 180/1/3 179/1/3
f 184/6/3 181/6/3 180/6/3
f 185/6/3 181/6/3 184/6/3
f 186/6/3 181/6/3 185/6/3
f 187/2/3 183/2/3 182/2/3
f 188/2/3 183/2/3 187/2/3
f 189/2/3 183/2/3 188/2/3
f 190/1/3 184/1/3 179/1/3
f 191/9/3 185/9/3 184/9/3
f 191/1/3 184/1/3 190/1/3
f 192/9/3 185/9/3 191/9/3
f 194/2/3 187/2/3 182/2/3
f 197/6/3 193/6/3 192/6/3
f 197/6/3 192/6/3 191/6/3
f 197/6/3 191/6/3 190/6/3
f 199/2/3 196/2/3 195/2/3
f 199/2/3 195/2/3 194/2/3
f 199/2/3 194/2/3 182/2/3
f 200/2/3 196/2/3 199/2/3
f 201/2/3 196/2/3 200/2/3
f 202/6/3 197/6/3 190/6/3
f 202/8/3 198/8/3 197/8/3
f 203/8/3 198/8/3 202/8/3
f 206/2/3 199/2/3 182/2/3
f 209/6/3 202/6/3 190/6/3
f 210/6/3 202/6/3 209/6/3
f 211/6/3 202/6/3 210/6/3
f 212/6/3 202/6/3 211/6/3
f 213/2/3 208/2/3 207/2/3
f 213/2/3 206/2/3 182/2/3
f 213/2/3 207/2/3 206/2/3
f 214/2/3 208/2/3 213/2/3
f 215/9/3 211/9/3 210/9/3
f 215/1/3 210/1/3 209/1/3
f 216/9/3 211/9/3 215/9/3
f 218/1/3 215/1/3 209/1/3
f 219/6/3 217/6/3 216/6/3
f 219/1/3 215/1/3 218/1/3
f 219/6/3 216/6/3 215/6/3
f 220/6/3 217/6/3 219/6/3
f 221/2/3 205/2/3 204/2/3
f 222/2/3 205/2/3 221/2/3
f 231/7/3 224/7/3 223/7/3
f 232/4/3 225/4/3 224/4/3
f 232/7/3 224/7/3 231/7/3
f 233/4/3 225/4/3 232/4/3
f 234/2/3 227/2/3 226/2/3
f 235/2/3 227/2/3 234/2/3
f 236/4/3 235/4/3 234/4/3
f 237/2/3 227/2/3 235/2/3
f 237/4/3 235/4/3 236/4/3
f 238/5/3 229/5/3 228/5/3
f 239/2/3 230/2/3 229/2/3
f 239/5/3 229/5/3 238/5/3
f 240/2/3 230/2/3 239/2/3
f 241/2/3 237/2/3 236/2/3
f 242/2/3 227/2/3 237/2/3
f 242/2/3 237/2/3 241/2/3
f 248/2/3 247/2/3 246/2/3
f 249/2/3 247/2/3 248/2/3
f 250/5/3 244/5/3 243/5/3
f 251/2/3 245/2/3 244/2/3
f 251/5/3 244/5/3 250/5/3
f 252/2/3 245/2/3 251/2/3
f 256/4/3 249/4/3 248/4/3
f 257/4/3 249/4/3 256/4/3
f 258/7/3 254/7/3 253/7/3
f 259/4/3 255/4/3 254/4/3
f 259/7/3 254/7/3 258/7/3
f 260/4/3 255/4/3 259/4/3
f 261/2/3 257/2/3 256/2/3
f 262/2/3 257/2/3 261/2/3
f 263/7/4 264/7/4 269/7/4
f 264/4/4 265/4/4 270/4/4
f 269/7/4 264/7/4 270/7/4
f 270/4/4 265/4/4 271/4/4
f 266/5/4 267/5/4 272/5/4
f 267/2/4 268/2/4 273/2/4
f 272/5/4 267/5/4 273/5/4
f 273/2/4 268/2/4 274/2/4
f 275/5/4 276/5/4 278/5/4
f 276/2/4 277/2/4 279/2/4
f 278/5/4 276/5/4 279/5/4
f 279/2/4 277/2/4 280/2/4
f 281/7/4 282/7/4 284/7/4
f 282/4/4 283/4/4 285/4/4
f 284/7/4 282/7/4 285/7/4
f 285/4/4 283/4/4 286/4/4
f 287/2/4 288/2/4 291/2/4
f 291/2/4 288/2/4 292/2/4
f 289/2/4 290/2/4 295/2/4
f 295/2/4 290/2/4 296/2/4
f 293/2/4 294/2/4 297/2/4
f 297/2/4 294/2/4 298/2/4
f 299/2/4 300/2/4 301/2/4
f 301/2/4 300/2/4 302/2/4
f 307/5/5 304/5/5 303/5/5
f 308/5/5 304/5/5 307/5/5
f 309/5/5 306/5/5 305/5/5
f 310/5/5 306/5/5 309/5/5
f 313/2/5 312/2/5 311/2/5
f 314/2/5 312/2/5 313/2/5
f 315/2/5 312/2/5 314/2/5
f 316/2/5 312/2/5 315/2/5
f 318/2/5 315/2/5 314/2/5
f 319/2/5 315/2/5 318/2/5
f 321/2/5 318/2/5 317/2/5
f 321/2/5 320/2/5 319/2/5
f 321/2/5 319/2/5 318/2/5
f 322/2/5 320/2/5 321/2/5
f 327/7/5 324/7/5 323/7/5
f 328/7/5 324/7/5 327/7/5
f 329/7/5 326/7/5 325/7/5
f 330/7/5 326/7/5 329/7/5
f 335/6/5 332/6/5 331/6/5
f 336/6/5 332/6/5 335/6/5
f 337/6/5 334/6/5 333/6/5
f 338/6/5 334/6/5 337/6/5
f 345/2/5 340/2/5 339/2/5
f 346/2/5 340/2/5 345/2/5
f 347/2/5 342/2/5 341/2/5
f 348/2/5 342/2/5 347/2/5
f 349/2/5 344/2/5 343/2/5
f 350/2/5 344/2/5 349/2/5
f 351/2/5 345/2/5 339/2/5
f 352/2/5 345/2/5 351/2/5
f 353/2/5 344/2/5 350/2/5
f 354/2/5 344/2/5 353/2/5
f 355/2/5 351/2/5 339/2/5
f 358/2/5 344/2/5 354/2/5
f 359/2/5 356/2/5 355/2/5
f 360/2/5 358/2/5 357/2/5
f 361/2/5 359/2/5 355/2/5
f 361/2/5 360/2/5 359/2/5
f 361/2/5 355/2/5 339/2/5
f 362/2/5 358/2/5 360/2/5
f 362/2/5 360/2/5 361/2/5
f 362/2/5 344/2/5 358/2/5
f 367/4/5 364/4/5 363/4/5
f 368/4/5 364/4/5 367/4/5
f 369/4/5 366/4/5 365/4/5
f 370/4/5 366/4/5 369/4/5
f 379/4/5 372/4/5 371/4/5
f 380/4/5 372/4/5 379/4/5
f 381/4/5 374/4/5 373/4/5
f 382/4/5 374/4/5 381/4/5
f 383/4/5 376/4/5 375/4/5
f 384/4/5 376/4/5 383/4/5
f 385/4/5 378/4/5 377/4/5
f 386/4/5 378/4/5 385/4/5
f 389/3/5 388/3/5 387/3/5
f 390/3/5 388/3/5 389/3/5
f 393/2/5 392/2/5 391/2/5
f 394/2/5 392/2/5 393/2/5
f 395/2/5 392/2/5 394/2/5
f 396/2/5 392/2/5 395/2/5
f 397/2/6 398/2/6 399/2/6
f 399/2/6 398/2/6 400/2/6
f 400/2/6 398/2/6 401/2/6
f 401/2/6 398/2/6 402/2/6
f 403/2/6 404/2/6 405/2/6
f 405/2/6 404/2/6 406/2/6
f 406/2/6 404/2/6 407/2/6
f 407/2/6 404/2/6 408/2/6
f 408/2/6 404/2/6 409/2/6
f 409/2/6 404/2/6 410/2/6
f 410/2/6 404/2/6 411/2/6
f 411/2/6 404/2/6 412/2/6
f 403/2/6 405/2/6 413/2/6
f 408/2/6 409/2/6 414/2/6
f 414/2/6 409/2/6 415/2/6
f 412/2/6 404/2/6 416/2/6
f 414/2/6 415/2/6 417/2/6
f 415/2/6 416/2/6 417/2/6
f 403/2/6 413/2/6 417/2/6
f 413/2/6 414/2/6 417/2/6
f 416/2/6 404/2/6 418/2/6
f 417/2/6 416/2/6 418/2/6
f 419/2/6 420/2/6 421/2/6
f 421/2/6 420/2/6 422/2/6
f 423/2/6 424/2/6 425/2/6
f 425/2/6 424/2/6 426/2/6
